PathFileType	4	(X/Y/Z)	C:\Users\86182\Documents\cortex\Trimmed_M4_H15.trc
DataRate	CameraRate	NumFrames	NumMarkers	Units	OrigDataRate	OrigDataStartFrame	OrigNumFrames
100.00	100.00	       140	2	mm	100.00	541	       901
Frame#	Time	gripper			box			
		X1	Y1	Z1	X2	Y2	Z2	

541	5.400	276.16220	151.11980	292.24872	278.12201	148.08653	155.53850	
542	5.410	276.16040	151.12013	292.24945	278.11237	148.08405	155.54097	
543	5.420	276.15921	151.12035	292.24997	278.09924	148.07924	155.54279	
544	5.430	276.15894	151.12033	292.25024	278.08432	148.07283	155.54393	
545	5.440	276.15945	151.12013	292.25018	278.07010	148.06606	155.54451	
546	5.450	276.16025	151.11996	292.24994	278.05862	148.06012	155.54475	
547	5.460	276.16052	151.12003	292.24957	278.05093	148.05589	155.54466	
548	5.470	276.15976	151.12045	292.24933	278.04758	148.05382	155.54396	
549	5.480	276.15778	151.12125	292.24936	278.04871	148.05399	155.54225	
550	5.490	276.15515	151.12222	292.24951	278.05420	148.05626	155.53949	
551	5.500	276.15286	151.12311	292.24963	278.06314	148.06020	155.53589	
552	5.510	276.15179	151.12366	292.24945	278.07370	148.06491	155.53185	
553	5.520	276.15213	151.12379	292.24896	278.08380	148.06927	155.52765	
554	5.530	276.15359	151.12361	292.24826	278.09186	148.07222	155.52332	
555	5.540	276.15567	151.12323	292.24747	278.09714	148.07320	155.51883	
556	5.550	276.15759	151.12279	292.24689	278.09985	148.07249	155.51456	
557	5.560	276.15897	151.12238	292.24661	278.10107	148.07086	155.51105	
558	5.570	276.15961	151.12201	292.24677	278.10162	148.06908	155.50877	
559	5.580	276.15933	151.12178	292.24734	278.10144	148.06746	155.50810	
560	5.590	276.15808	151.12177	292.24829	278.09991	148.06613	155.50920	
561	5.600	276.15594	151.12198	292.24945	278.09683	148.06511	155.51169	
562	5.610	276.15335	151.12238	292.25067	278.09277	148.06430	155.51457	
563	5.620	276.15073	151.12291	292.25171	278.08856	148.06345	155.51680	
564	5.630	276.14853	151.12354	292.25226	278.08481	148.06233	155.51791	
565	5.640	276.14682	151.12428	292.25226	278.08170	148.06105	155.51785	
566	5.650	276.14532	151.12518	292.25183	278.07968	148.05991	155.51672	
567	5.660	276.14352	151.12625	292.25134	278.07925	148.05946	155.51474	
568	5.670	276.14114	151.12747	292.25098	278.08023	148.06006	155.51241	
569	5.680	276.13828	151.12875	292.25089	278.08170	148.06151	155.51056	
570	5.690	276.13544	151.12991	292.25095	278.08246	148.06331	155.50998	
571	5.700	276.13321	151.13080	292.25104	278.08170	148.06485	155.51109	
572	5.710	276.13217	151.13126	292.25098	278.07928	148.06573	155.51369	
573	5.720	276.13269	151.13126	292.25055	278.07608	148.06599	155.51695	
574	5.730	276.13477	151.13080	292.24976	278.07343	148.06598	155.51987	
575	5.740	276.13821	151.12990	292.24872	278.07275	148.06616	155.52151	
576	5.750	276.14270	151.12863	292.24756	278.07449	148.06664	155.52141	
577	5.760	276.14795	151.12712	292.24631	278.07797	148.06709	155.51958	
578	5.770	276.15353	151.12555	292.24500	278.08218	148.06721	155.51646	
579	5.780	276.15878	151.12408	292.24384	278.08643	148.06693	155.51265	
580	5.790	276.16275	151.12291	292.24310	278.09021	148.06639	155.50888	
581	5.800	276.16476	151.12219	292.24298	278.09305	148.06578	155.50583	
582	5.810	276.16464	151.12201	292.24341	278.09430	148.06512	155.50412	
583	5.820	276.16260	151.12233	292.24432	278.09360	148.06433	155.50391	
584	5.830	276.15909	151.12308	292.24551	278.09113	148.06332	155.50484	
585	5.840	276.15472	151.12411	292.24686	278.08749	148.06224	155.50632	
586	5.850	276.15030	151.12521	292.24817	278.08322	148.06123	155.50795	
587	5.860	276.14682	151.12605	292.24921	278.07877	148.06050	155.50946	
588	5.870	276.14511	151.12640	292.24979	278.07492	148.06020	155.51070	
589	5.880	276.14548	151.12624	292.24979	278.07233	148.06044	155.51155	
590	5.890	276.14758	151.12564	292.24927	278.07129	148.06110	155.51195	
591	5.900	276.15088	151.12477	292.24841	278.07156	148.06186	155.51190	
592	5.910	276.15479	151.12375	292.24738	278.07251	148.06253	155.51167	
593	5.920	276.15854	151.12277	292.24634	278.07339	148.06305	155.51166	
594	5.930	276.16159	151.12199	292.24548	278.07330	148.06325	155.51234	
595	5.940	276.16360	151.12151	292.24487	278.07162	148.06288	155.51396	
596	5.950	276.16458	151.12132	292.24451	278.06848	148.06194	155.51631	
597	5.960	276.16483	151.12138	292.24429	278.06476	148.06088	155.51894	
598	5.970	276.16461	151.12157	292.24417	278.06143	148.06020	155.52148	
599	5.980	276.16409	151.12173	292.24426	278.05923	148.06000	155.52357	
600	5.990	276.16357	151.12175	292.24457	278.05875	148.06012	155.52481	
601	6.000	276.16345	151.12155	292.24493	278.06009	148.06038	155.52498	
602	6.010	276.16382	151.12119	292.24524	278.06271	148.06062	155.52422	
603	6.020	276.16449	151.12079	292.24536	278.06567	148.06070	155.52283	
604	6.030	276.16531	151.12045	292.24530	278.06851	148.06058	155.52097	
605	6.040	276.16614	151.12021	292.24512	278.07169	148.06041	155.51855	
606	6.050	276.16693	151.12004	292.24487	278.07568	148.06029	155.51563	
607	6.060	276.16769	151.11986	292.24463	278.08057	148.06015	155.51242	
608	6.070	276.16840	151.11966	292.24445	278.08603	148.05994	155.50929	
609	6.080	276.16901	151.11945	292.24438	278.09152	148.05974	155.50665	
610	6.090	276.16949	151.11926	292.24432	278.09662	148.05972	155.50493	
611	6.100	276.16983	151.11916	292.24426	278.10077	148.06009	155.50446	
612	6.110	276.16995	151.11920	292.24411	278.10342	148.06085	155.50523	
613	6.120	276.16986	151.11946	292.24384	278.10403	148.06169	155.50687	
614	6.130	276.16956	151.11992	292.24335	278.10287	148.06215	155.50868	
615	6.140	276.16910	151.12054	292.24274	278.10107	148.06210	155.50990	
616	6.150	276.16852	151.12122	292.24216	278.09970	148.06151	155.50998	
617	6.160	276.16779	151.12183	292.24176	278.09897	148.06039	155.50890	
618	6.170	276.16678	151.12234	292.24167	278.09827	148.05882	155.50719	
619	6.180	276.16547	151.12279	292.24188	278.09671	148.05717	155.50557	
620	6.190	276.16400	151.12318	292.24225	278.09409	148.05597	155.50456	
621	6.200	276.16254	151.12357	292.24265	278.09094	148.05560	155.50420	
622	6.210	276.16113	151.12393	292.24304	278.08838	148.05623	155.50421	
623	6.220	276.15976	151.12428	292.24341	278.08682	148.05769	155.50436	
624	6.230	276.15848	151.12457	292.24384	278.08588	148.05968	155.50458	
625	6.240	276.15723	151.12473	292.24438	278.08493	148.06174	155.50493	
626	6.250	276.15604	151.12474	292.24512	278.08322	148.06342	155.50569	
627	6.260	276.15521	151.12465	292.24579	278.08029	148.06419	155.50722	
628	6.270	276.15506	151.12445	292.24615	278.07602	148.06383	155.50970	
629	6.280	276.15555	151.12421	292.24622	278.07077	148.06244	155.51306	
630	6.290	276.15631	151.12396	292.24609	278.06516	148.06035	155.51700	
631	6.300	276.15674	151.12375	292.24609	278.05978	148.05801	155.52116	
632	6.310	276.15646	151.12358	292.24649	278.05524	148.05595	155.52515	
633	6.320	276.15540	151.12354	292.24725	278.05231	148.05466	155.52856	
634	6.330	276.15372	151.12366	292.24817	278.05173	148.05450	155.53111	
635	6.340	276.15173	151.12392	292.24905	278.05392	148.05562	155.53273	
636	6.350	276.14984	151.12425	292.24976	278.05832	148.05772	155.53345	
637	6.360	276.14853	151.12453	292.25018	278.06357	148.06020	155.53337	
638	6.370	276.14832	151.12462	292.25024	278.06815	148.06229	155.53250	
639	6.380	276.14948	151.12440	292.24979	278.07129	148.06346	155.53091	
640	6.390	276.15182	151.12393	292.24896	278.07288	148.06351	155.52885	
641	6.400	276.15457	151.12338	292.24805	278.07324	148.06252	155.52658	
642	6.410	276.15665	151.12299	292.24731	278.07272	148.06068	155.52425	
643	6.420	276.15738	151.12286	292.24701	278.07169	148.05826	155.52184	
644	6.430	276.15668	151.12305	292.24719	278.07068	148.05560	155.51915	
645	6.440	276.15469	151.12350	292.24774	278.07047	148.05330	155.51598	
646	6.450	276.15173	151.12418	292.24860	278.07123	148.05171	155.51245	
647	6.460	276.14856	151.12489	292.24948	278.07254	148.05081	155.50899	
648	6.470	276.14615	151.12538	292.25012	278.07361	148.05032	155.50616	
649	6.480	276.14526	151.12546	292.25031	278.07394	148.04991	155.50436	
650	6.490	276.14581	151.12517	292.25009	278.07333	148.04941	155.50371	
651	6.500	276.14713	151.12471	292.24963	278.07199	148.04892	155.50410	
652	6.510	276.14874	151.12428	292.24915	278.07016	148.04874	155.50536	
653	6.520	276.15042	151.12396	292.24866	278.06812	148.04900	155.50725	
654	6.530	276.15201	151.12379	292.24814	278.06622	148.04965	155.50946	
655	6.540	276.15341	151.12375	292.24762	278.06494	148.05048	155.51166	
656	6.550	276.15463	151.12373	292.24719	278.06445	148.05124	155.51384	
657	6.560	276.15582	151.12363	292.24683	278.06445	148.05182	155.51622	
658	6.570	276.15726	151.12328	292.24658	278.06451	148.05219	155.51894	
659	6.580	276.15915	151.12270	292.24631	278.06445	148.05241	155.52184	
660	6.590	276.16125	151.12204	292.24585	278.06433	148.05260	155.52437	
661	6.600	276.16306	151.12154	292.24527	278.06421	148.05264	155.52594	
662	6.610	276.16406	151.12135	292.24451	278.06357	148.05225	155.52637	
663	6.620	276.16406	151.12163	292.24353	278.06204	148.05124	155.52609	
664	6.630	276.16290	151.12231	292.24243	278.05975	148.04993	155.52573	
665	6.640	276.16071	151.12335	292.24133	278.05759	148.04897	155.52557	
666	6.650	276.15765	151.12457	292.24042	278.05643	148.04889	155.52563	
667	6.660	276.15411	151.12587	292.23987	278.05664	148.04991	155.52602	
668	6.670	276.15045	151.12715	292.24002	278.05786	148.05185	155.52687	
669	6.680	276.14685	151.12825	292.24112	278.05923	148.05429	155.52837	
670	6.690	276.14346	151.12906	292.24310	278.05981	148.05663	155.53058	
671	6.700	276.14053	151.12946	292.24554	278.05930	148.05844	155.53320	
672	6.710	276.13843	151.12944	292.24796	278.05814	148.05960	155.53546	
673	6.720	276.13757	151.12907	292.24985	278.05695	148.06010	155.53645	
674	6.730	276.13815	151.12849	292.25092	278.05621	148.06001	155.53558	
675	6.740	276.13989	151.12788	292.25101	278.05624	148.05949	155.53290	
676	6.750	276.14255	151.12730	292.25031	278.05728	148.05884	155.52898	
677	6.760	276.14572	151.12675	292.24911	278.05945	148.05836	155.52461	
678	6.770	276.14908	151.12613	292.24786	278.06247	148.05820	155.52058	
679	6.780	276.15237	151.12529	292.24689	278.06583	148.05824	155.51746	
680	6.790	276.15540	151.12428	292.24634	278.06900	148.05835	155.51550	
